<svg class="svg-icon" style="width: 1em; height: 1em;vertical-align: middle;fill: currentColor;overflow: hidden;" viewBox="0 0 1024 1024" version="1.1" xmlns="http://www.w3.org/2000/svg"><path d="M764.586667 495.786667a42.666667 42.666667 0 0 0-8.96-14.08l-213.333334-213.333334a42.666667 42.666667 0 0 0-60.586666 60.586667l140.8 140.373333H298.666667a42.666667 42.666667 0 0 0 0 85.333334h323.84l-140.8 140.373333a42.666667 42.666667 0 0 0 0 60.586667 42.666667 42.666667 0 0 0 60.586666 0l213.333334-213.333334a42.666667 42.666667 0 0 0 8.96-14.08 42.666667 42.666667 0 0 0 0-32.426666z"  /></svg>